<svg xmlns="http://www.w3.org/2000/svg" viewBox="0 0 391.84 59.61"><title>weighable</title><path d="M296.88,287.58h-3.34v-9.75h20.94v9.75h-3.14L315,297.91l7.66-20.09h11.91l6.94,20.09,4-10.34h-3v-9.75H357.6v9.75h-3l-9.09,21.66H332.8l-7.07-15.9-6.67,15.9H306.37Z" transform="translate(-293.54 -263.5)"/><path d="M398.62,300.66c-2.62,5.82-9,9.09-17.86,9.09-15.31,0-21.33-7.79-21.33-16.23,0-9.88,8.11-16.62,19.89-16.62,9.95,0,19.89,4.71,20,18.06H374.94c.07,4.84,2.09,7.52,5.69,7.52a5,5,0,0,0,4.71-3.4Zm-19-16.62c-2.88,0-4.65,3-4.45,6.87h9.09C384.49,286.27,382.26,284,379.58,284Z" transform="translate(-293.54 -263.5)"/><path d="M402.55,299.09h3.21V287.58h-3.21v-9.75h19.3v21.26h2.68v9.75h-22ZM421.91,269c0,3-3.14,5.56-8.7,5.56-5.3,0-8.77-2-8.77-5.56,0-3,3.73-5.5,8.77-5.5S421.91,265.79,421.91,269Z" transform="translate(-293.54 -263.5)"/><path d="M434.34,312.57a28.15,28.15,0,0,0,9.88,1.57c6.48,0,10.8-1.77,10.34-8.51a22,22,0,0,1-10.6,2.49c-9.95,0-16.68-6-16.68-14.92,0-9.29,7.2-15.9,17.21-15.9a15,15,0,0,1,10.08,3.34v-2.81h20v9.75h-3.86v18.78c0,12-6.87,16.75-22.44,16.75-6.74,0-14.13-1-18.25-2.62Zm14.79-12.37c3.4,0,5.5-2.55,5.5-6.67s-2.22-7.07-5.56-7.07-5.5,2.81-5.5,7.07C443.57,297.59,445.73,300.2,449.13,300.2Z" transform="translate(-293.54 -263.5)"/><path d="M474,299.09H478V274.16H474v-9.75h20.15v17.21A23.2,23.2,0,0,1,507,277.3c6.61,0,11.58,3.79,11.58,13.28v8.51h3.66v9.75H502.52V292.29c0-2.75-1.24-4.51-3.86-4.51a10.21,10.21,0,0,0-4.51,1.31v10h4.32v9.75H474Z" transform="translate(-293.54 -263.5)"/><path d="M524.78,285.29c2.55-6.15,8.31-8.37,20.22-8.37,14.53,0,20.48,3.08,20.48,11.58v10.6h4.06v9.75H549.38v-2.75c-1.83,1.64-3.86,3.34-11.06,3.34-9.55,0-13.28-5-13.28-9.68,0-5.89,6-9.95,14.79-9.95a24.35,24.35,0,0,1,9.55,1.64v-2.81c0-2.68-2-5-6-5a7,7,0,0,0-6,3Zm24.6,10a9.49,9.49,0,0,0-4.51-1.18c-2.75,0-4.65,1.7-4.65,4.19a4.21,4.21,0,0,0,4.32,4.45,7.65,7.65,0,0,0,4.84-1.83Z" transform="translate(-293.54 -263.5)"/><path d="M572,299.09h4.06V274.16H572v-9.75h20.15v15.44a18.93,18.93,0,0,1,10-2.55c9.81,0,16.95,5.82,16.95,15.77a16,16,0,0,1-16.29,16.36c-5.3,0-8.31-1.37-10.67-3.4v2.81H572Zm25.52,1.18c3.47,0,5.3-2.42,5.3-7,0-4.32-2-6.8-5.43-6.8S592,289.08,592,293.4,594,300.27,597.52,300.27Z" transform="translate(-293.54 -263.5)"/><path d="M621.33,299.09h3.27V274.16h-3.27v-9.75H640.7v34.68h2.88v9.75H621.33Z" transform="translate(-293.54 -263.5)"/><path d="M684.67,300.66c-2.62,5.82-9,9.09-17.86,9.09-15.31,0-21.33-7.79-21.33-16.23,0-9.88,8.11-16.62,19.89-16.62,9.95,0,19.89,4.71,20,18.06H661c.07,4.84,2.09,7.52,5.69,7.52a5,5,0,0,0,4.71-3.4Zm-19-16.62c-2.88,0-4.65,3-4.45,6.87h9.09C670.53,286.27,668.31,284,665.63,284Z" transform="translate(-293.54 -263.5)"/></svg>